<svg xmlns="http://www.w3.org/2000/svg" viewBox="0 0 128 128"><path fill="#F0DB4F" d="M1.408 1.408h125.184v125.185H1.408z"/><path d="M116.343 96.59c-.917-5.713-4.64-10.505-15.698-14.99-3.832-1.76-8.1-3.01-9.376-5.96-.452-1.69-.512-2.64-.224-3.66.81-3.28 4.73-4.28 7.84-3.35 2 0.66 3.89 2.2 5.04 4.66 5.35-3.47 5.35-3.47 9.08-5.88-1.37-2.13-2.1-3.11-3-4.01-3.23-3.61-7.74-5.47-14.94-5.34l-3.73.48c-3.58.9-6.98 2.77-8.98 5.23-5.98 6.8-4.28 18.68 3 23.53 7.14 5.35 17.64 6.56 19 11.58 1.3 6.1-4.48 8.07-10.2 7.37-4.23-.88-6.59-3.03-9.14-6.97-4.69 2.7-4.69 2.7-9.5 5.46 1.14 2.5 2.34 3.62 4.27 5.79 9.1 9.2 31.83 8.76 35.86-5.18.16-.48 1.24-3.62.38-8.47zm-46.25-37.2H58.6v28.86c0 6.15.32 11.78-.68 13.5-1.64 3.4-5.86 2.98-7.78 2.32-1.96-.97-2.96-2.35-4.12-4.3-.32-.57-.56-1.03-.64-1.07l-9.5 5.8c1.58 3.2 3.9 5.98 6.84 7.76 4.42 2.67 10.37 3.48 16.59 2.05 4.05-1.18 7.54-3.62 9.36-7.34 2.64-4.87 2.08-10.77 2.06-17.36.06-10.67 0-21.34 0-32.01z" fill="#323330"/></svg>