<svg xmlns="http://www.w3.org/2000/svg" viewBox="0 0 24 24" fill="white"><path d="M24 4.56a9.93 9.93 0 01-2.83.78 4.93 4.93 0 002.16-2.72 9.86 9.86 0 01-3.12 1.2A4.92 4.92 0 0016.62 3c-2.72 0-4.93 2.2-4.93 4.92 0 .39.05.77.13 1.13C7.72 8.86 4.1 6.9 1.67 3.9a4.92 4.92 0 00-.66 2.47c0 1.7.87 3.2 2.2 4.08a4.93 4.93 0 01-2.23-.62v.06c0 2.37 1.68 4.34 3.91 4.79-.41.12-.85.18-1.3.18-.31 0-.63-.03-.93-.09.63 1.96 2.44 3.39 4.6 3.43A9.89 9.89 0 010 19.54a13.94 13.94 0 007.55 2.21c9.06 0 14.02-7.5 14.02-14 0-.21 0-.42-.01-.63A10.02 10.02 0 0024 4.56z"/></svg>